<svg width="960" height="480" viewBox="0 0 960 480" fill="none" xmlns="http://www.w3.org/2000/svg">
  <rect width="960" height="480" rx="28" fill="#FFF5E9"/>
  <rect x="52" y="58" width="856" height="364" rx="20" fill="#FFFFFF"/>
  <path d="M96 330L184 270L270 288L356 208L442 226L530 166L618 196L704 136L792 174L864 128" stroke="#1D6B57" stroke-width="8" stroke-linecap="round" stroke-linejoin="round"/>
  <path d="M96 356L184 340L270 302L356 316L442 272L530 286L618 252L704 268L792 228L864 248" stroke="#B85C38" stroke-width="8" stroke-linecap="round" stroke-linejoin="round"/>
  <circle cx="356" cy="208" r="10" fill="#1D6B57"/>
  <circle cx="704" cy="136" r="10" fill="#1D6B57"/>
  <circle cx="442" cy="272" r="10" fill="#B85C38"/>
  <circle cx="792" cy="228" r="10" fill="#B85C38"/>
</svg>
