<svg width="960" height="480" viewBox="0 0 960 480" fill="none" xmlns="http://www.w3.org/2000/svg">
  <defs>
    <linearGradient id="bg" x1="0" y1="0" x2="960" y2="480" gradientUnits="userSpaceOnUse">
      <stop stop-color="#FBF6EE"/>
      <stop offset="0.55" stop-color="#F5EDE3"/>
      <stop offset="1" stop-color="#F0E8DC"/>
    </linearGradient>
    <radialGradient id="glowSage" cx="0" cy="0" r="1" gradientUnits="userSpaceOnUse" gradientTransform="translate(720 120) rotate(90) scale(200 220)">
      <stop stop-color="#C5D4C8" stop-opacity="0.75"/>
      <stop offset="1" stop-color="#C5D4C8" stop-opacity="0"/>
    </radialGradient>
    <radialGradient id="glowPeach" cx="0" cy="0" r="1" gradientUnits="userSpaceOnUse" gradientTransform="translate(820 260) rotate(90) scale(160 200)">
      <stop stop-color="#E8CBB5" stop-opacity="0.65"/>
      <stop offset="1" stop-color="#E8CBB5" stop-opacity="0"/>
    </radialGradient>
    <linearGradient id="vial" x1="680" y1="140" x2="760" y2="320" gradientUnits="userSpaceOnUse">
      <stop stop-color="#1D6B57"/>
      <stop offset="1" stop-color="#2A7F68"/>
    </linearGradient>
    <filter id="soft" x="-20%" y="-20%" width="140%" height="140%">
      <feGaussianBlur stdDeviation="1.2" result="b"/>
      <feMerge><feMergeNode in="b"/><feMergeNode in="SourceGraphic"/></feMerge>
    </filter>
  </defs>
  <rect width="960" height="480" rx="28" fill="url(#bg)"/>
  <circle cx="705" cy="155" r="138" fill="url(#glowSage)"/>
  <circle cx="835" cy="268" r="118" fill="url(#glowPeach)"/>
  <circle cx="780" cy="210" r="72" fill="#D1D9CD" fill-opacity="0.55"/>
  <circle cx="758" cy="268" r="54" fill="#E2C4B1" fill-opacity="0.5"/>

  <g filter="url(#soft)" opacity="0.95">
    <rect x="708" y="168" width="56" height="168" rx="20" fill="url(#vial)" fill-opacity="0.92"/>
    <rect x="720" y="152" width="32" height="28" rx="8" fill="#2E6B56"/>
    <rect x="724" y="132" width="24" height="28" rx="6" fill="#B85C38" fill-opacity="0.85"/>
    <path d="M736 108 L736 124" stroke="#5E6B60" stroke-width="5" stroke-linecap="round"/>
    <ellipse cx="736" cy="100" rx="10" ry="6" fill="#5E6B60" fill-opacity="0.75"/>
    <rect x="718" y="290" width="36" height="8" rx="3" fill="#F7EFE1" fill-opacity="0.9"/>
  </g>

  <g opacity="0.55">
    <rect x="48" y="64" width="480" height="48" rx="14" fill="#2E6B56"/>
    <rect x="48" y="128" width="420" height="18" rx="9" fill="#E8D9C4"/>
    <rect x="48" y="156" width="320" height="18" rx="9" fill="#E8D9C4"/>
  </g>

  <g opacity="0.35">
    <rect x="48" y="230" width="150" height="150" rx="18" fill="#FFFFFF" stroke="#E8D9C4" stroke-width="1"/>
    <rect x="216" y="230" width="150" height="150" rx="18" fill="#FFFFFF" stroke="#E8D9C4" stroke-width="1"/>
    <rect x="384" y="230" width="150" height="150" rx="18" fill="#FFFFFF" stroke="#E8D9C4" stroke-width="1"/>
  </g>

  <g opacity="0.4" stroke="#2E6B56" stroke-width="4" stroke-linecap="round" stroke-linejoin="round" fill="none">
    <path d="M88 360 L118 330 L152 346 L188 312 L222 328"/>
    <circle cx="88" cy="360" r="5" fill="#2E6B56" stroke="none"/>
    <circle cx="222" cy="328" r="5" fill="#B85C38" stroke="none"/>
  </g>
</svg>
